<?xml version="1.0" standalone="no"?>
<!DOCTYPE svg PUBLIC "-//W3C//DTD SVG 20010904//EN"
 "http://www.w3.org/TR/2001/REC-SVG-20010904/DTD/svg10.dtd">
<svg version="1.0" xmlns="http://www.w3.org/2000/svg"
 width="602.000000pt" height="602.000000pt" viewBox="0 0 602.000000 602.000000"
 preserveAspectRatio="xMidYMid meet">
<metadata>
Created by potrace 1.14, written by Peter Selinger 2001-2017
</metadata>
<g transform="translate(0.000000,602.000000) scale(0.100000,-0.100000)"
fill="#000000" stroke="none">
<path d="M4346 5954 c-3 -9 -6 -24 -6 -34 0 -56 -77 -276 -144 -414 -139 -282
-336 -539 -576 -751 -167 -147 -278 -224 -485 -335 -290 -156 -326 -180 -440
-302 -149 -158 -225 -319 -233 -491 -10 -218 61 -388 216 -524 l76 -66 -39 8
c-56 10 -194 21 -232 17 -26 -3 -39 -13 -62 -46 -16 -23 -33 -58 -36 -77 -6
-30 -15 -38 -75 -67 -83 -40 -105 -70 -116 -167 -14 -130 -10 -226 12 -275 23
-50 16 -90 -16 -90 -9 0 -24 -8 -33 -18 -15 -16 -16 -39 -12 -167 4 -146 4
-149 -20 -177 -29 -34 -30 -43 -11 -80 14 -27 6 -48 -21 -48 -19 0 -44 -44
-42 -76 3 -42 -47 -124 -75 -124 -45 0 -89 -75 -56 -95 13 -8 -9 -55 -26 -55
-21 0 -54 -51 -54 -84 0 -44 -25 -78 -54 -70 -47 11 -106 -78 -106 -162 0 -30
-95 -142 -162 -190 -29 -20 -109 -70 -178 -110 -193 -112 -262 -158 -319 -214
-73 -70 -94 -123 -97 -235 -1 -49 -7 -128 -12 -175 -10 -91 -5 -121 28 -176
30 -47 72 -66 158 -72 151 -10 377 46 827 206 183 65 314 124 515 231 91 49
210 112 265 141 312 165 663 368 1010 585 116 72 282 173 370 225 135 79 295
183 356 232 8 7 37 40 63 72 48 59 48 60 43 119 -8 84 -84 235 -153 303 -29
29 -67 80 -84 114 -101 200 -220 370 -260 370 -17 0 -40 19 -40 32 0 4 22 8
48 8 139 0 340 104 438 226 46 59 114 175 114 197 0 17 -5 19 -37 14 -21 -4
-58 -9 -83 -12 l-45 -6 25 18 c136 98 350 297 350 325 0 4 -8 8 -17 8 -22 0
-147 -18 -188 -26 -26 -6 -21 0 32 39 69 52 146 143 195 232 44 80 88 189 78
193 -5 2 -26 -8 -47 -21 -44 -27 -116 -57 -139 -57 -9 0 21 39 73 94 185 196
325 432 346 588 3 20 3 39 0 42 -3 3 -33 -19 -67 -48 -62 -54 -199 -156 -209
-156 -3 0 19 33 49 73 72 96 137 223 168 331 21 69 26 110 26 192 0 56 -4 105
-9 108 -5 3 -64 -51 -132 -122 -67 -70 -120 -120 -116 -112 97 226 137 364
137 480 0 36 -9 114 -20 173 -25 143 -57 194 -81 130 -59 -159 -126 -290 -205
-399 l-29 -40 -1 115 c0 121 -16 205 -37 199 -7 -3 -52 -61 -101 -131 -49 -70
-91 -126 -92 -124 -2 2 8 48 22 102 35 138 44 345 19 447 -30 123 -88 248
-115 248 -5 0 -11 -7 -14 -16z"/>
</g>
</svg>
